<svg xmlns="http://www.w3.org/2000/svg" xmlns:xlink="http://www.w3.org/1999/xlink" viewBox="0 0 180 41"><defs><style>.a{fill:#fff;fill-rule:evenodd;}.b{fill:url(#a);}.c{fill:#d10088;}</style><radialGradient id="a" cx="0.156" cy="0.148" r="0.995" gradientTransform="matrix(0.667, 0.74, -0.741, 0.68, 0.162, -0.068)" gradientUnits="objectBoundingBox"><stop offset="0" stop-color="#e2007f"/><stop offset="0.145" stop-color="#db0083"/><stop offset="0.347" stop-color="#c9008d"/><stop offset="0.585" stop-color="#ab009d"/><stop offset="0.846" stop-color="#8200b5"/><stop offset="1" stop-color="#6600c4"/></radialGradient></defs><g transform="translate(-137 -364)"><path class="a" d="M176.137,40.387v-.028a4.729,4.729,0,0,1,4.809-4.778,5.059,5.059,0,0,1,3.583,1.254l-1.039,1.227a3.677,3.677,0,0,0-2.612-.99,3.137,3.137,0,0,0-3.024,3.257v.029a3.1,3.1,0,0,0,3.167,3.3,3.837,3.837,0,0,0,2.251-.7V41.23h-2.383V39.817h3.969V43.7a5.992,5.992,0,0,1-3.889,1.437,4.6,4.6,0,0,1-4.834-4.75Zm-53.622.672V35.74h1.638v5.253c0,1.714.893,2.622,2.359,2.622s2.345-.857,2.345-2.559V35.738h1.638v5.238c0,2.758-1.575,4.143-4.015,4.143s-3.969-1.385-3.969-4.069Zm-13.059,2.574.985-1.162a4.337,4.337,0,0,0,2.944,1.2c1.013,0,1.652-.475,1.652-1.162v-.026c0-.66-.372-1.016-2.1-1.413-1.982-.474-3.1-1.056-3.1-2.758v-.026c0-1.583,1.334-2.679,3.184-2.679a5.191,5.191,0,0,1,3.385,1.163L115.525,38a4.259,4.259,0,0,0-2.532-.948c-.956,0-1.518.488-1.518,1.1v.028c0,.715.43,1.033,2.228,1.453,1.976.477,2.984,1.175,2.984,2.707v.028c0,1.731-1.369,2.758-3.328,2.758a5.776,5.776,0,0,1-3.889-1.475Zm98.789,1.347h-1.73l-.945-2.231h-4.41l-.956,2.236h-1.678l4.1-9.307h1.518l4.107,9.307Zm-43.62,0h-1.638V35.741h4.158a3.779,3.779,0,0,1,2.692.924,2.8,2.8,0,0,1,.773,2v.028a2.774,2.774,0,0,1-2.211,2.8l2.52,3.5h-1.942l-2.291-3.218h-2.05V45Zm-26.02,0h-1.638V35.741h3.677c2.188,0,3.545,1.227,3.545,3.088v.027c0,2.071-1.678,3.154-3.729,3.154h-1.85v2.97ZM235.2,37.244h-2.957v7.735H230.59V37.244h-2.958v-1.5H235.2Zm-78.384-.052H151.54V39.6h4.675v1.453h-4.676v2.486h5.342v1.453H149.9V35.745h6.913V37.2Zm58.647,7.791h-1.611V35.745h1.518l4.994,6.388V35.739h1.613v9.239H220.6l-5.141-6.571v6.571Zm-22.555,0h-1.639V35.745h1.639Zm12.062-3.669-1.612-3.7-1.6,3.7h3.21Zm-64.46-.766c1.239,0,2.01-.687,2.01-1.649v-.028c0-1.084-.785-1.651-2.01-1.651h-1.9v3.325h1.9Zm26.512-.224c1.172,0,1.919-.607,1.919-1.544v-.028c0-.987-.72-1.527-1.932-1.527h-2.383v3.1h2.4Z" transform="translate(81.801 344.31)"/><path class="b" d="M18640.4,22917.891a20.431,20.431,0,0,1,11.828-26.5,20.832,20.832,0,0,1,21.094,3.689,45.632,45.632,0,0,0-10.3,2.676,40.994,40.994,0,0,0-13.676,8.307,1.186,1.186,0,0,0-1.082-.109,1.168,1.168,0,0,0-.672,1.514.877.877,0,0,0,.172.293c-2.705,3.193-3.822,6.424-2.779,9.105,2.273,5.848,14.049,6.773,26.291,2.066a47.309,47.309,0,0,0,8.7-4.393,20.518,20.518,0,0,1-12.818,15.08,20.758,20.758,0,0,1-26.752-11.725Zm5.381-1.824c-.908-2.324.076-5.15,2.424-7.953a1.167,1.167,0,0,0,.932.033,1.153,1.153,0,0,0,.674-1.514,1.238,1.238,0,0,0-.074-.166,40.167,40.167,0,0,1,13.484-8.174,45.91,45.91,0,0,1,10.643-2.717,20.919,20.919,0,0,1,1.658,1.717,31.165,31.165,0,0,0-11.816,2.232c-9.186,3.527-15.258,9.951-13.543,14.344.633,1.645,2.238,2.75,4.488,3.344a1.736,1.736,0,0,0,.133.535,1.946,1.946,0,0,0,3.648-.059,31.537,31.537,0,0,0,11.477-2.25,30.616,30.616,0,0,0,10.418-6.389,22.35,22.35,0,0,1-.021,3.563,46.483,46.483,0,0,1-9.537,4.949,41.822,41.822,0,0,1-14.564,2.98C18650.9,22920.543,18646.939,22919.02,18645.779,22916.066Zm12.6.242a1.943,1.943,0,0,0-3.373-.369c-2.072-.482-3.521-1.443-4.08-2.865-1.508-3.873,4.281-9.711,12.967-13.031a29.969,29.969,0,0,1,12.07-2.215,20.216,20.216,0,0,1,1.4,2.014c-2.684-1.02-7.379-.627-12.26,1.232a21.984,21.984,0,0,0-8.979,5.875,1.47,1.47,0,0,0-1.025,0,1.39,1.39,0,0,0-.8,1.809,1.255,1.255,0,0,0,.5.645,2.9,2.9,0,0,0,.092,1.68c1.141,2.936,7.545,3.2,14.332.594,5.139-1.957,9-5.008,10.078-7.645a20.47,20.47,0,0,1,.816,3.27,29.025,29.025,0,0,1-10.746,6.77,31.4,31.4,0,0,1-10.883,2.238Zm-2.648-6.02a1.567,1.567,0,0,1-.131-.645,1.381,1.381,0,0,0,.523-.094,1.4,1.4,0,0,0,.8-1.812,1.358,1.358,0,0,0-.316-.477c1.549-1.957,4.732-4.1,8.721-5.631,6.221-2.383,12.035-2.383,12.984,0,.932,2.4-3.355,6.258-9.6,8.658a24.866,24.866,0,0,1-8.48,1.787C18657.883,22912.076,18656.2,22911.48,18655.73,22910.289Zm9.779-7.42a3.349,3.349,0,0,0-1.934,4.352,3.417,3.417,0,0,0,4.4,1.922,3.368,3.368,0,0,0,1.934-4.357,3.427,3.427,0,0,0-4.4-1.916Z" transform="translate(-18502 -22526)"/><path class="c" d="M4.794-8.942A5.413,5.413,0,0,0,1.241-7.684l.425.612a4.606,4.606,0,0,1,3.06-1.122A2.311,2.311,0,0,1,7.361-5.661v.714H4.318C1.853-4.947,1-3.808,1-2.465,1-.952,2.21.068,4.2.068a3.409,3.409,0,0,0,3.2-1.649V0h.816V-5.627C8.211-7.82,6.987-8.942,4.794-8.942ZM4.318-.629c-1.564,0-2.465-.714-2.465-1.87,0-1.02.646-1.785,2.482-1.785H7.361v1.666A3.042,3.042,0,0,1,4.318-.629ZM17.034-8.942a3.663,3.663,0,0,0-3.519,1.989V-8.874H12.7V0h.85V-4.726a3.166,3.166,0,0,1,3.366-3.451c1.8,0,2.873,1.054,2.873,3.06V0h.85V-5.185C20.638-7.667,19.193-8.942,17.034-8.942Zm11.084,0a5.413,5.413,0,0,0-3.553,1.258l.425.612a4.606,4.606,0,0,1,3.06-1.122,2.311,2.311,0,0,1,2.635,2.533v.714H27.642c-2.465,0-3.315,1.139-3.315,2.482,0,1.513,1.207,2.533,3.2,2.533a3.409,3.409,0,0,0,3.2-1.649V0h.816V-5.627C31.535-7.82,30.311-8.942,28.118-8.942ZM27.642-.629c-1.564,0-2.465-.714-2.465-1.87,0-1.02.646-1.785,2.482-1.785h3.026v1.666A3.042,3.042,0,0,1,27.642-.629ZM36.023,0h.85V-12.614h-.85ZM47.7-8.874,44.149-.935,40.6-8.874h-.9l4,8.84-.476,1.071c-.544,1.207-1.139,1.581-1.955,1.581a2.16,2.16,0,0,1-1.649-.7l-.425.646a2.834,2.834,0,0,0,2.057.8c1.173,0,2.057-.527,2.771-2.159L48.569-8.874Zm3.57,8.143L57.137-8.3v-.578H50.269v.731h5.763L50.184-.578V0h7.055V-.731Zm16.864-3.74A4.2,4.2,0,0,0,63.9-8.942a4.243,4.243,0,0,0-4.25,4.505A4.356,4.356,0,0,0,64.226.068a4.247,4.247,0,0,0,3.349-1.445l-.493-.561A3.579,3.579,0,0,1,64.243-.7a3.575,3.575,0,0,1-3.757-3.536h7.633C68.119-4.318,68.136-4.4,68.136-4.471ZM63.9-8.194a3.355,3.355,0,0,1,3.4,3.3H60.5A3.354,3.354,0,0,1,63.9-8.194Z" transform="translate(191 401)"/></g></svg>